<svg width="500" height="500" viewBox="0 0 500 500" fill="none" xmlns="http://www.w3.org/2000/svg">
<rect width="500" height="500" fill="#222222"/>
<mask id="mask0" mask-type="alpha" maskUnits="userSpaceOnUse" x="82" y="64" width="335" height="371">
<path d="M219.445 273.471C208.725 392.688 198.735 430.164 195.08 434L83 377.614C140.989 268.984 117.721 146.314 98.8374 98.5587C167.669 51.9536 427.768 35.2679 415.586 174.508C405.84 285.9 280.765 286.897 219.445 273.471Z" fill="#FA9905" stroke="black"/>
</mask>
<g mask="url(#mask0)">
<path d="M431 116L51 162.172V222L431 203.791V116Z" fill="#FB3640"/>
<path d="M437 184L87 193.304V277.043L423.782 291L437 184Z" fill="#FA9905"/>
<path d="M433 235L83 244.304V328.043L419.782 342L433 235Z" fill="#FA9905"/>
<path d="M94 240V287L375.5 301.5L416 247L94 240Z" fill="#FB3640"/>
<path d="M62 320V417.821L346.997 448L388 334.569L62 320Z" fill="#FB3640"/>
<path d="M437 6L57 52.1718V112L437 93.7914V6Z" fill="#FB3640"/>
<path d="M443 74L93 83.3043V167.043L429.782 181L443 74Z" fill="#FA9905"/>
<path d="M221 183.309V137.566C239.201 135.636 275.481 137.566 274.995 160.727C274.51 183.888 238.796 185.433 221 183.309Z" fill="#222222" stroke="black"/>
</g>
</svg>
